<svg width="25" height="25" viewBox="0 0 25 25" fill="none" xmlns="http://www.w3.org/2000/svg">
<path d="M13.0585 3.21745L3.1085 12.6005C2.92999 12.7728 2.82413 13.0068 2.81261 13.2546C2.80108 13.5025 2.88476 13.7453 3.0465 13.9335L6.7855 17.9175L10.5155 21.8915C10.8915 22.2705 11.4525 22.2845 11.8305 21.9515L21.9695 12.3915C22.0168 12.3441 22.0731 12.3067 22.1351 12.2816C22.1971 12.2564 22.2635 12.2439 22.3304 12.2449C22.3973 12.2458 22.4633 12.2602 22.5245 12.2871C22.5858 12.314 22.641 12.353 22.6869 12.4017C22.7328 12.4503 22.7685 12.5077 22.7919 12.5704C22.8152 12.6331 22.8257 12.6999 22.8228 12.7667C22.8198 12.8335 22.8035 12.8991 22.7748 12.9595C22.7461 13.02 22.7055 13.074 22.6555 13.1185L12.5035 22.6905C11.7195 23.3825 10.5575 23.3535 9.7955 22.5855L6.0555 18.6015L2.3045 14.6045C1.6195 13.8165 1.6485 12.6515 2.4105 11.8845L12.5495 2.32445C12.6045 2.27247 12.6707 2.23367 12.7429 2.21097C12.8152 2.18828 12.8916 2.18229 12.9665 2.19345L21.6675 3.49645C21.7792 3.51327 21.8819 3.56739 21.9588 3.65001C22.0358 3.73263 22.0826 3.83887 22.0915 3.95145L22.5955 10.3255C22.606 10.4577 22.5635 10.5886 22.4774 10.6895C22.3913 10.7904 22.2687 10.853 22.1365 10.8635C22.0043 10.8739 21.8733 10.8315 21.7724 10.7454C21.6715 10.6593 21.609 10.5367 21.5985 10.4045L21.1265 4.42645L13.0585 3.21745Z" fill="#00B14F"/>
<path d="M15.9345 10.6214C15.0545 10.5494 14.3895 9.80943 14.4685 8.95443C14.5465 8.10343 15.3285 7.48743 16.2055 7.55943C17.0855 7.63143 17.7495 8.37143 17.6715 9.22543C17.5935 10.0764 16.8105 10.6924 15.9345 10.6214ZM16.1245 8.55543C15.7805 8.52743 15.4905 8.75543 15.4645 9.04543C15.4375 9.33143 15.6765 9.59643 16.0155 9.62443C16.3595 9.65243 16.6495 9.42443 16.6755 9.13443C16.7015 8.84943 16.4635 8.58443 16.1235 8.55543H16.1245Z" fill="#00B14F"/>
</svg>
