<svg width="24" height="25" viewBox="0 0 24 25" fill="none" xmlns="http://www.w3.org/2000/svg">
<path fill-rule="evenodd" clip-rule="evenodd" d="M12 0.796875C18.627 0.796875 24 6.16988 24 12.7969C24 19.4239 18.627 24.7969 12 24.7969C5.373 24.7969 0 19.4239 0 12.7969C0 6.16988 5.373 0.796875 12 0.796875Z" fill="#F7F7F7"/>
<path d="M12 18.5239C15.1629 18.5239 17.727 15.9598 17.727 12.7969C17.727 9.63395 15.1629 7.06989 12 7.06989C8.83708 7.06989 6.27301 9.63395 6.27301 12.7969C6.27301 15.9598 8.83708 18.5239 12 18.5239Z" stroke="#00B14F" stroke-linecap="square"/>
<path d="M12 5.79688V8.34188M19 12.7969H16.455M12 19.7969V17.2519M5 12.7969H7.545" stroke="#00B14F" stroke-linecap="square"/>
<path d="M12 13.7969C12.5523 13.7969 13 13.3492 13 12.7969C13 12.2446 12.5523 11.7969 12 11.7969C11.4477 11.7969 11 12.2446 11 12.7969C11 13.3492 11.4477 13.7969 12 13.7969Z" stroke="#00B14F" stroke-width="2" stroke-linecap="square"/>
<path d="M12 13.7969C12.5523 13.7969 13 13.3492 13 12.7969C13 12.2446 12.5523 11.7969 12 11.7969C11.4477 11.7969 11 12.2446 11 12.7969C11 13.3492 11.4477 13.7969 12 13.7969Z" fill="white"/>
</svg>
