<svg width="15" height="17" viewBox="0 0 15 17" fill="none" xmlns="http://www.w3.org/2000/svg">
<path d="M2.30382 4.93636C2.10917 4.93636 1.94097 5.1066 1.91882 5.32454L0.921774 15.1902C0.902501 15.3809 1.08119 15.5545 1.30677 15.5545H13.7699C13.995 15.5545 14.1742 15.3803 14.1549 15.1902L13.1579 5.32478C13.1357 5.10688 12.9673 4.93636 12.7729 4.93636H11.2773C10.9508 4.93636 10.9508 4.93636 10.017 4.93636C8.88083 4.93636 8.88083 4.93636 7.54221 4.93636C6.17781 4.93636 6.17781 4.93636 5.02776 4.93636C4.09206 4.93636 4.09206 4.93636 3.7994 4.93636H2.30382Z" stroke="#676767" stroke-width="0.727273"/>
<path d="M10.5929 6.85146V4.99831C10.5828 2.48428 9.56457 1.22726 7.53835 1.22726" stroke="#676767" stroke-width="0.727273"/>
<path d="M4.4838 6.75454V4.99831C4.49393 2.48428 5.51212 1.22726 7.53834 1.22726" stroke="#676767" stroke-width="0.727273"/>
<path d="M4.48378 8.49999C4.96578 8.49999 5.35651 8.10925 5.35651 7.62726C5.35651 7.14527 4.96578 6.75453 4.48378 6.75453C4.00179 6.75453 3.61105 7.14527 3.61105 7.62726C3.61105 8.10925 4.00179 8.49999 4.48378 8.49999Z" stroke="#676767" stroke-width="0.727273" stroke-linecap="round" stroke-linejoin="round"/>
<path d="M10.5929 8.49999C11.0749 8.49999 11.4656 8.10925 11.4656 7.62726C11.4656 7.14527 11.0749 6.75453 10.5929 6.75453C10.1109 6.75453 9.72015 7.14527 9.72015 7.62726C9.72015 8.10925 10.1109 8.49999 10.5929 8.49999Z" stroke="#676767" stroke-width="0.727273" stroke-linecap="round" stroke-linejoin="round"/>
</svg>
