<svg width="143" height="51" viewBox="0 0 143 51" fill="none" xmlns="http://www.w3.org/2000/svg">
<path d="M7.85449 25.4594C7.85449 30.0491 11.318 33.5689 15.7953 33.5689C20.1037 33.5689 22.2717 30.7809 22.2717 27.7117V26.6137H15.9921V28.303H20.5537C20.5818 29.9641 19.0613 31.9071 15.7953 31.9071C12.1911 31.9071 9.685 29.2323 9.685 25.4588C9.685 21.8265 12.388 19.0948 16.1052 19.0948C18.527 19.0948 20.4418 19.686 22.2155 20.9253L22.328 20.8409V19.2641C21.0043 18.3348 18.7519 17.4336 16.049 17.4336C11.4586 17.4342 7.85449 20.9822 7.85449 25.4594ZM5.2359 25.4594C5.2359 31.5415 9.74125 36.075 15.7953 36.075C21.3143 36.075 24.6935 32.6114 24.6935 27.008V24.1357H15.9921V25.7687H23.1161V27.2893C23.1161 31.6821 20.385 34.4132 15.7946 34.4132C10.7543 34.4132 7.00954 30.5553 7.00954 25.4588C7.00954 20.5028 10.9518 16.5887 16.0484 16.5887C18.4701 16.5887 20.6662 17.1799 22.3274 18.3342V16.673C20.7225 15.5187 18.6107 14.9275 16.0484 14.9275C9.93811 14.9282 5.2359 19.5741 5.2359 25.4594ZM28.2695 26.8955V35.5963H29.9306V26.9237C29.9306 24.9807 31.1981 23.6007 33.0842 23.6007C33.6473 23.6007 34.1541 23.7414 34.6891 23.967C34.9141 23.432 35.1397 22.9814 35.4209 22.5589C34.8297 22.1646 33.9566 21.9115 33.1117 21.9115C30.2687 21.9115 28.2695 23.967 28.2695 26.8955ZM25.8196 35.5963H27.4808V26.8955C27.4808 23.4601 29.79 21.1234 33.1404 21.1234C34.2666 21.1234 35.4216 21.4896 35.9284 21.799C36.2384 21.4328 36.5759 21.0384 37.0265 20.6728C35.9846 19.941 34.5766 19.5185 33.0561 19.5185C28.6351 19.5185 25.8196 22.5033 25.8196 26.9243V35.5963ZM51.8662 25.8537V28.3036C52.8517 26.9799 53.6967 25.8256 54.4848 24.8682C56.484 22.4183 58.2295 21.0665 60.9331 21.0665C64.5935 21.0665 67.269 23.8257 67.269 27.7117C67.269 31.5134 64.6504 34.4132 61.0462 34.4132C58.1177 34.4132 55.5834 32.414 54.9922 29.6829L53.8098 31.2878C54.7391 33.9626 57.4702 36.075 61.0181 36.075C65.5797 36.075 68.9307 32.4146 68.9307 27.7117C68.9307 22.9533 65.5516 19.3766 60.9337 19.3766C56.1459 19.3773 53.9498 22.9533 51.8662 25.8537ZM57.019 27.0924H56.9627L55.6672 28.8667C55.8922 30.894 57.9483 33.597 61.0456 33.597C64.1992 33.597 66.4803 31.0347 66.4803 27.6836C66.4803 24.3326 64.1429 21.8546 60.9331 21.8546C57.8077 21.8546 56.0053 24.1357 54.7385 25.825C54.1192 26.6418 53.0492 27.9649 51.8662 29.6266V32.3296C52.9642 30.6966 54.4566 28.7817 55.5547 27.458C57.4133 25.2338 58.5395 23.5439 60.905 23.5439C63.2142 23.5439 64.791 25.3181 64.791 27.683C64.791 30.1328 63.2986 31.9346 61.0462 31.9346C58.6808 31.9346 57.0196 29.7666 57.0196 27.3449V27.0924H57.019ZM55.3572 13.4639V20.4753C55.8641 20.081 56.4271 19.6022 57.0184 19.3773V13.4639H55.3572ZM52.8799 23.0377C53.3867 22.3902 53.9498 21.6859 54.541 21.0947V13.4639H52.8799V23.0377ZM46.1215 31.0628L46.0934 31.0347C45.3897 31.5978 44.2348 31.9359 43.1367 31.9359C40.8843 31.9359 39.1944 30.2466 39.1944 27.7405C39.1944 25.3469 40.8556 23.517 43.0805 23.517C45.4741 23.517 46.9383 25.2625 46.9383 27.5999V35.5969H48.5995V27.5149C48.5995 24.2488 46.3184 21.8552 43.1086 21.8552C39.9269 21.8552 37.4771 24.2488 37.4771 27.7405C37.4771 31.204 39.8988 33.682 43.1086 33.5976C44.3191 33.5695 45.5584 33.1189 46.1215 32.7246V31.0628ZM34.971 27.7117C34.971 32.6114 38.4345 36.075 43.1086 36.075C44.1504 36.075 45.3609 35.765 46.1215 35.1738V33.5126C45.6147 33.9351 44.376 34.4138 43.1086 34.4138C39.2788 34.4138 36.6883 31.7109 36.6883 27.7124C36.6883 23.9107 39.4476 21.0672 43.1086 21.0672C46.7409 21.0672 49.3876 23.742 49.3876 27.4874V35.5969H51.0768V27.4586C51.0768 22.7845 47.782 19.3491 43.108 19.3491C38.5189 19.3491 34.971 22.9814 34.971 27.7117Z" fill="#00B14F"/>
<path d="M75.0085 18.3398V24.5682H83.2661V27.6117H75.0085V35.5875H71.7112V15.2956H84.2248V18.3392H75.0085V18.3398ZM101.615 27.7811C101.615 32.7133 98.4021 36.0106 93.6955 36.0106C88.9889 36.0106 85.7478 32.7133 85.7478 27.7811C85.7478 22.8489 88.9889 19.5235 93.6955 19.5235C98.4021 19.5235 101.615 22.8489 101.615 27.7811ZM93.6955 22.5952C90.99 22.5952 88.9889 24.7369 88.9889 27.7811C88.9889 30.8253 90.99 32.9389 93.6955 32.9389C96.4009 32.9389 98.3739 30.8253 98.3739 27.7811C98.3739 24.7369 96.4009 22.5952 93.6955 22.5952ZM119.288 27.7811C119.288 32.7133 116.075 36.0106 111.368 36.0106C106.662 36.0106 103.42 32.7133 103.42 27.7811C103.42 22.8489 106.662 19.5235 111.368 19.5235C116.075 19.5235 119.288 22.8489 119.288 27.7811ZM111.369 22.5952C108.663 22.5952 106.662 24.7369 106.662 27.7811C106.662 30.8253 108.663 32.9389 111.369 32.9389C114.074 32.9389 116.047 30.8253 116.047 27.7811C116.047 24.7369 114.074 22.5952 111.369 22.5952ZM128.816 19.5235C131.071 19.5235 132.987 20.8197 133.551 22.2289H133.691V13.6045H136.932V27.6399C136.932 32.7408 133.663 36.01 129.041 36.01C124.419 36.01 121.093 32.8252 121.093 27.7524C121.094 22.5952 124.419 19.5235 128.816 19.5235ZM129.041 32.9383C131.719 32.9383 133.692 30.7965 133.692 27.5274C133.692 24.5401 131.634 22.5952 128.985 22.5952C126.336 22.5952 124.335 24.5119 124.335 27.6399C124.335 30.8809 126.364 32.9383 129.041 32.9383Z" fill="#00B14F"/>
</svg>
